<?xml version="1.0" encoding="UTF-8"?>
<!DOCTYPE svg PUBLIC "-//W3C//DTD SVG 1.1//EN" "http://www.w3.org/Graphics/SVG/1.1/DTD/svg11.dtd">
<svg xmlns="http://www.w3.org/2000/svg" version="1.1" width="990px" height="132px" style="shape-rendering:geometricPrecision; text-rendering:geometricPrecision; image-rendering:optimizeQuality; fill-rule:evenodd; clip-rule:evenodd" xmlns:xlink="http://www.w3.org/1999/xlink">
<g><path style="opacity:0.981" fill="#05ce77" d="M 29.5,14.5 C 43.2786,11.9719 53.1119,16.9719 59,29.5C 68.9477,13.2403 82.1144,10.0737 98.5,20C 104.795,27.1367 106.628,35.3034 104,44.5C 100.28,51.5511 95.78,58.0511 90.5,64C 95.393,70.5625 99.893,77.3958 104,84.5C 107.173,102.323 99.8399,112.656 82,115.5C 71.3548,115.014 63.6881,110.014 59,100.5C 51.0802,114.695 39.5802,118.528 24.5,112C 20.2163,108.712 17.0496,104.545 15,99.5C 14.3333,76.1667 14.3333,52.8333 15,29.5C 16.3988,26.3707 18.0655,23.3707 20,20.5C 23.1796,18.3377 26.3463,16.3377 29.5,14.5 Z"/></g>
<g><path style="opacity:0.966" fill="#05ce77" d="M 128.5,14.5 C 140.418,12.2191 149.918,15.8858 157,25.5C 158.399,28.3634 159.399,31.3634 160,34.5C 160.955,55.8843 160.621,77.2176 159,98.5C 154.877,109.157 147.043,114.824 135.5,115.5C 122.168,114.431 114.001,107.431 111,94.5C 110.057,73.1239 110.391,51.7906 112,30.5C 115.438,22.8934 120.938,17.56 128.5,14.5 Z"/></g>
<g><path style="opacity:0.979" fill="#05ce77" d="M 207.5,14.5 C 214.841,14.3337 222.174,14.5003 229.5,15C 252.2,21.7737 258.7,35.9404 249,57.5C 246.106,60.3614 242.939,62.8614 239.5,65C 252.47,72.2197 256.637,83.0531 252,97.5C 244.41,109.882 233.243,115.882 218.5,115.5C 192.787,114.6 176.287,101.933 169,77.5C 163.565,44.9956 176.399,23.9956 207.5,14.5 Z"/></g>
<g><path style="opacity:0.98" fill="#05ce77" d="M 276.5,14.5 C 290.641,11.4854 300.474,16.4854 306,29.5C 312.19,17.3219 322.023,12.4885 335.5,15C 347.834,19.0131 353.334,27.5131 352,40.5C 348.576,49.1776 343.742,57.0109 337.5,64C 341.544,69.9214 345.711,75.7547 350,81.5C 355.504,96.6443 351.004,107.478 336.5,114C 322.892,117.243 312.726,112.743 306,100.5C 298.997,114.241 288.164,118.408 273.5,113C 267.93,110.057 264.097,105.557 262,99.5C 261.333,76.1667 261.333,52.8333 262,29.5C 265.021,22.6468 269.855,17.6468 276.5,14.5 Z"/></g>
<g><path style="opacity:0.977" fill="#05ce77" d="M 384.5,14.5 C 392.84,14.3336 401.173,14.5003 409.5,15C 428.466,17.5979 435.966,28.0979 432,46.5C 428.967,50.9381 424.8,53.7714 419.5,55C 437.845,67.2161 442.011,83.0495 432,102.5C 422.071,113.243 409.738,117.91 395,116.5C 381.586,118.027 369.92,114.36 360,105.5C 351.86,88.9508 356.693,78.7842 374.5,75C 356.901,63.6514 352.401,48.4847 361,29.5C 366.852,21.328 374.685,16.328 384.5,14.5 Z"/></g>
<g><path style="opacity:0.977" fill="#05ce77" d="M 555.5,14.5 C 568.831,11.5484 579.331,15.5484 587,26.5C 595.275,44.7164 603.275,63.0497 611,81.5C 615.548,101.627 607.548,112.96 587,115.5C 576.367,114.38 568.533,109.046 563.5,99.5C 553.578,115.814 540.245,119.314 523.5,110C 515.576,102.721 513.076,93.8875 516,83.5C 524.092,63.5499 532.758,43.8832 542,24.5C 545.579,19.7307 550.079,16.3974 555.5,14.5 Z"/></g>
<g><path style="opacity:0.973" fill="#05ce77" d="M 454.5,15.5 C 472.503,15.3334 490.503,15.5001 508.5,16C 522.343,20.5057 527.843,30.0057 525,44.5C 521.606,53.4559 515.106,58.4559 505.5,59.5C 505.93,73.8923 505.43,88.2257 504,102.5C 495.616,116.516 483.783,120.349 468.5,114C 463.555,111.054 460.055,106.888 458,101.5C 456.571,87.5594 456.071,73.5594 456.5,59.5C 439.619,55.7557 433.452,45.4224 438,28.5C 441.41,21.3933 446.91,17.06 454.5,15.5 Z"/></g>
<g><path style="opacity:0.98" fill="#05ce77" d="M 637.5,15.5 C 652.55,15.0844 667.55,15.5844 682.5,17C 698.416,22.9912 705.583,34.4912 704,51.5C 703.317,58.6995 700.151,64.5328 694.5,69C 700.646,76.2914 704.646,84.6248 706.5,94C 704.402,111.223 694.736,118.556 677.5,116C 670.861,113.697 665.694,109.531 662,103.5C 656.048,114.557 646.882,118.723 634.5,116C 626.234,113.401 621.068,107.901 619,99.5C 618.333,77.5 618.333,55.5 619,33.5C 621.12,23.2118 627.287,17.2118 637.5,15.5 Z"/></g>
<g><path style="opacity:0.98" fill="#05ce77" d="M 724.5,15.5 C 742.503,15.3334 760.503,15.5001 778.5,16C 791.871,19.7263 797.704,28.5596 796,42.5C 793.234,53.101 786.401,58.7676 775.5,59.5C 775.95,74.2387 775.45,88.9054 774,103.5C 767.266,114.609 757.433,118.776 744.5,116C 736.974,114.161 731.808,109.661 729,102.5C 727.551,88.2391 727.051,73.9058 727.5,59.5C 714.43,58.0945 707.43,50.7611 706.5,37.5C 707.812,26.1996 713.812,18.8663 724.5,15.5 Z"/></g>
<g><path style="opacity:0.983" fill="#05ce77" d="M 821.5,15.5 C 836.17,15.3334 850.837,15.5001 865.5,16C 877.848,19.5142 883.015,27.6809 881,40.5C 879.014,47.1565 874.848,51.9898 868.5,55C 875.142,62.609 875.142,70.2756 868.5,78C 879.106,82.7083 883.272,90.875 881,102.5C 879.264,109.237 875.097,113.737 868.5,116C 851.833,116.667 835.167,116.667 818.5,116C 810,114.167 804.833,109 803,100.5C 802.333,77.5 802.333,54.5 803,31.5C 805.98,22.346 812.146,17.0127 821.5,15.5 Z"/></g>
<g><path style="opacity:0.982" fill="#05ce77" d="M 906.5,15.5 C 921.55,15.0844 936.55,15.5844 951.5,17C 972.081,26.401 977.914,41.5676 969,62.5C 967.542,64.96 965.709,67.1266 963.5,69C 966.667,74.1667 969.833,79.3333 973,84.5C 977.976,99.2768 973.476,109.777 959.5,116C 946.978,118.485 937.478,114.318 931,103.5C 925.072,114.544 915.905,118.711 903.5,116C 895.667,113.5 890.5,108.333 888,100.5C 887.333,77.8333 887.333,55.1667 888,32.5C 890.55,22.7788 896.717,17.1122 906.5,15.5 Z"/></g>
</svg>
